<svg width="32" height="33" viewBox="0 0 32 33" fill="none" xmlns="http://www.w3.org/2000/svg">
<path d="M16 27.0332C16 27.0332 3.5 20.0332 3.5 11.5332C3.5 10.0306 4.02062 8.57434 4.97328 7.41229C5.92593 6.25023 7.25178 5.45413 8.72525 5.15944C10.1987 4.86475 11.7288 5.08966 13.0551 5.79592C14.3814 6.50218 15.4221 7.64616 16 9.03321C16.5779 7.64616 17.6186 6.50218 18.9449 5.79592C20.2712 5.08966 21.8013 4.86475 23.2748 5.15944C24.7482 5.45413 26.0741 6.25023 27.0267 7.41229C27.9794 8.57434 28.5 10.0306 28.5 11.5332C28.5 20.0332 16 27.0332 16 27.0332Z" stroke="#707363" stroke-width="2" stroke-linecap="round" stroke-linejoin="round"/>
</svg>
