<svg width="20" height="20" viewBox="0 0 20 20" fill="none" xmlns="http://www.w3.org/2000/svg">
<path d="M3.54709 13.8284C2.61653 12.2584 2.29103 10.4028 2.6317 8.6098C2.97237 6.81682 3.95578 5.20985 5.39731 4.09056C6.83883 2.97127 8.63934 2.41664 10.4608 2.53079C12.2823 2.64494 13.9995 3.42003 15.29 4.71053C16.5805 6.00104 17.3556 7.71822 17.4697 9.53969C17.5839 11.3612 17.0292 13.1617 15.91 14.6032C14.7907 16.0447 13.1837 17.0281 11.3907 17.3688C9.59775 17.7095 7.74208 17.384 6.17209 16.4534L3.57834 17.1878C3.47207 17.2189 3.3594 17.2208 3.25213 17.1934C3.14487 17.1659 3.04696 17.1101 2.96866 17.0319C2.89037 16.9536 2.83459 16.8557 2.80715 16.7484C2.77971 16.6411 2.78163 16.5284 2.81271 16.4222L3.54709 13.8284Z" stroke="#E7EBB2" stroke-width="1.5" stroke-linecap="round" stroke-linejoin="round"/>
</svg>
